<?xml version="1.0" encoding="UTF-8" standalone="no"?>
<svg
   version="1.1"
   style="display: block; width: 100%; height: 100%; overflow: visible;"
   viewBox="-40.96 -40.96 2129.92 2129.92"
   data-aspect-ratio="1.00"
   data-viewbox="0 0 2048 2048"
   preserveAspectRatio="xMidYMid meet"
   id="svg93"
   sodipodi:docname="budgetzilla.svg"
   inkscape:version="1.4.2 (ebf0e940, 2025-05-08)"
   xmlns:inkscape="http://www.inkscape.org/namespaces/inkscape"
   xmlns:sodipodi="http://sodipodi.sourceforge.net/DTD/sodipodi-0.dtd"
   xmlns="http://www.w3.org/2000/svg"
   xmlns:svg="http://www.w3.org/2000/svg">
  <sodipodi:namedview
     id="namedview93"
     pagecolor="#505050"
     bordercolor="#eeeeee"
     borderopacity="1"
     inkscape:showpageshadow="0"
     inkscape:pageopacity="0"
     inkscape:pagecheckerboard="0"
     inkscape:deskcolor="#d1d1d1"
     inkscape:zoom="0.36753309"
     inkscape:cx="975.42238"
     inkscape:cy="1040.7226"
     inkscape:window-width="1712"
     inkscape:window-height="1182"
     inkscape:window-x="1818"
     inkscape:window-y="131"
     inkscape:window-maximized="0"
     inkscape:current-layer="svg93" />
  <defs
     id="defs2">
    <linearGradient
       id="Gradient1"
       gradientUnits="userSpaceOnUse"
       x1="1110.11"
       y1="489.686"
       x2="1114.72"
       y2="504.755"
       gradientTransform="matrix(1.26,0,0,1.26,-265.76105,-254.65684)">
      <stop
         class="stop0"
         offset="0"
         stop-opacity="1"
         stop-color="rgb(4,36,84)"
         id="stop1" />
      <stop
         class="stop1"
         offset="1"
         stop-opacity="1"
         stop-color="rgb(37,66,106)"
         id="stop2" />
    </linearGradient>
  </defs>
  <path
     transform="translate(0,0)"
     fill="rgb(139,188,230)"
     d="M 254.681 59.4278 C 274.626 57.1912 306.095 59.0035 327.253 59.0178 L 479.286 59.23 L 974.129 59.714 L 1541.88 59.8895 L 1710.29 59.7689 C 1740.99 59.6743 1773.08 57.5525 1803.59 60.5417 C 1840.73 64.1801 1879.51 80.3727 1908.53 103.784 C 1952.46 139.225 1982.84 190.697 1988.39 247.163 C 1991.7 280.764 1989.88 315.85 1989.88 349.622 L 1989.94 527.26 L 1990 1100.2 L 1989.84 1576.8 L 1989.65 1719.04 C 1989.62 1747.78 1991.33 1777.64 1987.77 1806.15 C 1982.46 1848.62 1964.67 1884.79 1937.45 1917.45 C 1901.07 1961.1 1848.88 1983.7 1793.25 1988.94 C 1736.45 1989.72 1679.64 1989.97 1622.83 1989.67 L 1351.63 1989.39 L 718.842 1989.57 L 398.244 1989.81 L 306.415 1989.94 C 284.995 1989.97 263.169 1990.81 241.887 1988.08 C 201.789 1982.7 164.093 1965.87 133.316 1939.61 C 91.9907 1904.53 63.6157 1851.7 59.4223 1797.45 C 57.0429 1766.67 58.9962 1729.15 59.0021 1697.54 L 59.0226 1501.34 L 58.9833 880.026 L 58.9452 437.083 L 58.7266 312.415 C 58.5893 287.916 56.6448 262.826 59.6967 238.472 C 64.472 200.366 83.8235 161.731 108.9 132.956 C 146.636 89.6544 197.293 63.5235 254.681 59.4278 z"
     id="path3" />
  <path
     fill="rgb(243,243,242)"
     d="M 263.997 78.4964 C 303.922 77.7199 343.965 78.2919 383.905 78.2121 L 663.377 78.4601 L 1282.12 78.1925 L 1638.49 78.6372 L 1739.71 78.8493 C 1761.96 78.8868 1784.92 77.845 1807 80.7387 C 1842.65 85.4111 1878.7 103.898 1905.22 127.853 C 1942.31 161.341 1966.62 209.853 1968.99 259.905 C 1970.76 297.398 1969.26 335.602 1969.18 373.155 L 1969.07 573.946 L 1969.02 1210.81 L 1968.96 1614.47 L 1969.12 1735.12 C 1969.16 1756.59 1970.71 1779.42 1968.23 1800.73 C 1963.79 1838.98 1947.41 1877.58 1921.4 1906.11 C 1882.78 1948.47 1837.25 1967.06 1780.8 1969.73 C 1734.93 1970.81 1688.89 1970.17 1643 1970.19 L 1381.8 1969.99 L 702.936 1969.53 L 388.511 1970 L 304.677 1969.95 C 285.303 1969.96 265.465 1970.86 246.223 1968.4 C 206.28 1963 168.957 1945.47 139.289 1918.18 C 102.61 1884.48 79.931 1834.52 78.0624 1784.81 C 76.4667 1742.37 77.798 1699.53 77.7257 1657.04 L 77.5467 1406.43 L 77.2956 762.826 L 77.0644 400.799 L 77.0918 305.988 C 77.0971 286.41 75.9667 265.931 78.5232 246.498 C 83.809 206.884 101.256 169.887 128.457 140.608 C 164.247 102.004 211.411 80.5255 263.997 78.4964 z"
     id="path4"
     transform="translate(0,0)" />
  <path
     fill="#03133f"
     d="m 1085.9039,367.19474 c 17.2368,-14.6097 34.713,-27.5373 56.2086,-35.18928 15.4098,-5.48352 34.8264,-9.44496 51.219,-7.66836 7.245,0.78498 15.5232,3.00006 22.6926,2.49102 21.8862,-1.5561 49.3794,-18.11754 71.0892,-6.8229 9.6138,5.0022 15.9768,20.67156 23.2722,28.77336 9.0468,10.03464 30.9456,19.22256 33.1002,33.65586 1.512,10.06866 -18.4464,28.46844 -24.2424,36.70758 -13.923,19.78452 -16.7706,43.99164 -12.474,67.3722 l 0.3402,1.75518 c 10.395,1.82196 33.2262,-1.16802 39.7908,7.82082 3.5028,4.78296 2.1294,11.47104 0.8064,16.76052 -2.2428,9.0342 -5.3928,17.74584 -11.9448,24.60402 -18.7362,19.60056 -76.4568,27.82458 -102.9546,44.3709 -16.1658,10.10016 -22.1382,30.72006 -26.3718,48.33486 -3.1374,13.0473 -5.7456,28.21896 -3.0996,41.53968 5.733,28.854 47.754,88.07904 64.6128,115.78392 l 30.6558,51.44832 c 25.7418,48.45708 46.3302,103.4208 47.1366,159.02838 0.4662,19.57908 -2.016,38.45388 -2.2806,57.84528 9.9036,-0.2646 19.8072,-0.1764 29.6982,0.2772 l 0.5796,18.2322 6.3,8.5554 c 0.9702,39.942 1.26,79.8966 0.8946,119.8512 -0.05,26.8506 0.5796,53.9154 -0.378,80.7408 3.906,3.5784 7.7742,7.2324 11.8188,10.647 4.2336,5.1912 8.0892,10.143 11.4156,15.9768 2.3814,5.1156 4.8384,10.1808 6.8292,15.4602 2.2806,7.7112 3.6792,14.3136 3.0744,22.4658 -5.4054,4.662 -9.0846,5.1408 -15.9894,5.7834 -47.5398,2.3814 -94.5882,5.6448 -142.254,5.1912 -19.845,-0.1764 -41.391,0.05 -60.7572,-4.4856 -8.1018,-1.9026 -18.9882,-5.5188 -23.3856,-13.23 -7.9758,-14.0238 1.6254,-38.8206 5.8212,-53.4492 -2.4696,-9.324 -6.2748,-17.4762 -11.088,-25.7796 -32.382,11.7432 -64.7262,19.026 -98.343,26.0316 8.19,4.1328 16.2918,8.4042 23.6376,13.9482 18.9756,14.3262 37.4598,39.2994 40.1814,63.4536 0.5166,4.662 0.1638,7.5096 -2.772,11.2014 -18.4212,6.8544 -76.7718,6.2874 -98.1918,6.4638 -20.3868,0.1638 -90.56749,1.2726 -106.16881,-3.024 -7.6734,-2.1168 -12.89232,-7.056 -18.39096,-12.474 -142.54254,0.1386 -284.98176,-7.7238 -426.6423,-23.562 -23.74722,-5.5566 -105.9471,-7.812 -119.33838,-20.9286 -0.34902,-1.5876 -1.01934,-2.457 -0.0164,-3.9186 6.22692,-9.0972 49.76118,-16.2666 61.90632,-18.585 -2.11428,-17.0982 -6.47892,-33.579 -6.06312,-50.9292 3.47382,-4.4478 7.05852,-9.9792 12.0204,-12.8142 6.99552,-3.9942 14.92974,-0.3024 21.83202,2.016 17.72442,6.7032 35.39088,13.5576 52.99938,20.5632 -1.27638,-5.3046 -2.961,-10.6974 -3.82662,-16.0902 -1.20456,-7.5096 1.37214,-12.2976 5.89176,-18.018 4.93038,-4.2966 9.03672,-6.5646 15.56478,-7.5852 21.4452,9.8784 47.83338,16.9848 70.37226,26.3088 -1.5561,-9.5256 -4.347,-18.8496 -6.8544,-28.1484 l 0.43722,-0.7686 c 5.02992,-9.0216 10.11654,-13.041 18.73368,-18.207 26.16768,4.0446 53.59032,12.0708 79.09272,19.3536 -1.4742,-6.2874 -2.16468,-12.8646 -3.13236,-19.2528 3.40956,-4.1328 7.43904,-8.8326 12.23838,-11.34 15.83442,-8.2782 81.63162,34.7886 101.44512,40.5342 3.85308,1.1088 7.54488,1.9026 11.2392,-0.025 4.77036,-8.4798 2.28186,-50.9796 2.22768,-63.126 -10.2438,-5.4054 -48.53268,-18.9126 -53.03592,-25.389 -9.74358,-14.0238 55.47906,-64.6506 56.47194,-71.1144 0.24822,-1.6128 0.27594,-5.8338 -0.74592,-7.119 -8.19882,-10.332 -47.76408,-29.0808 -57.73446,-41.0004 -1.98576,-2.3688 -3.51288,-5.292 -2.7909,-8.4672 3.60738,-15.92004 63.38682,-56.1468 78.32538,-65.83494 2.1987,-3.08574 1.71108,-8.65494 1.85976,-12.4236 -7.50582,-3.39696 -54.54414,-21.58254 -57.38166,-24.24114 -2.50866,-2.35116 -3.29364,-4.48434 -3.04164,-7.94808 0.69678,-9.58734 20.69298,-25.86528 27.31554,-32.35806 -10.8108,-16.89534 -36.38502,-35.65548 -42.46326,-52.78896 0.27972,-3.11724 1.13652,-4.97826 3.0807,-7.3647 9.78642,-12.01032 56.48832,-37.7307 71.87166,-43.96518 4.07106,-1.6506 8.4105,-2.2869 12.73734,-2.88036 -7.44534,-12.41352 -46.7523,-65.93958 -45.01728,-75.91248 0.59724,-3.42972 3.47382,-6.12738 6.21432,-8.0136 13.92426,-9.57852 46.55196,-22.0878 64.09494,-31.31352 -3.0933,-9.83178 -21.92274,-57.5631 -17.98902,-63.83538 7.5978,-12.10986 66.6162,-25.4079 81.6921,-28.89306 -6.46002,-17.32122 -24.10002,-65.6334 -26.5608,-81.73872 -0.47754,-3.12732 -0.69048,-4.8762 1.7388,-7.23996 4.47174,-4.35078 14.80248,-6.6276 20.64132,-8.5617 42.28686,-14.00868 65.49984,-15.52446 109.58469,-12.67308 -9.3114,-15.3216 -29.673,-58.10616 -31.6638,-75.35178 -0.4284,-3.66156 -0.1764,-4.96062 1.9908,-7.89264 17.4762,-8.07408 61.5258,2.6775 80.5896,8.39538 z"
     id="path5"
     sodipodi:nodetypes="ccscccccccccccccccccccccccccccccccccccccccccccccccccccccccccccccccccccccccccccccccssccccc"
     style="stroke-width:1.26" />
  <path
     fill="#f3f3f2"
     d="m 1343.4605,1055.8061 c 9.9036,-0.2646 19.8072,-0.1764 29.6982,0.2772 l 0.5796,18.2322 6.3,8.5554 c 0.9702,39.942 1.26,79.8966 0.8946,119.8512 -0.05,26.8506 0.5796,53.9154 -0.378,80.7408 -5.5062,-3.7674 -10.9494,-7.0686 -17.2746,-9.3492 -17.8164,-6.4386 -33.4782,-2.7342 -50.0094,4.7376 6.615,-9.4374 13.4064,-18.5346 18.711,-28.8288 25.7418,-49.8834 20.7522,-103.5972 4.0194,-155.1816 3.1752,-12.9402 5.5188,-25.8678 7.4592,-39.0348 z"
     id="path6"
     style="stroke-width:1.26" />
  <path
     fill="#5f6a6d"
     d="m 1213.3025,347.7983 c 3.4398,1.15794 4.3722,0.92232 7.9884,0.26838 2.0412,-1.67328 3.9186,-3.2886 5.8338,-5.09418 10.9116,-10.25388 37.044,-11.43702 51.3828,-10.68228 8.3916,9.2484 15.561,19.43298 24.255,28.43064 7.371,7.64064 15.7374,13.8411 23.4864,20.98404 -26.8128,8.9901 -56.1204,16.75674 -79.0524,33.89274 -10.647,7.9569 -20.1348,17.57196 -28.5138,27.86616 -13.041,16.01586 -25.767,40.62366 -44.793,49.59738 -10.08,4.75398 -21.042,5.44194 -31.9536,6.59232 17.9046,5.40666 39.1734,4.16052 57.8088,4.15296 30.9456,-0.0126 61.9668,-0.4788 92.9124,0.26586 13.482,0.32508 27.9846,0.0668 41.2902,2.1861 -1.638,6.15888 -3.0618,12.40596 -5.6322,18.25488 -14.6538,13.08636 -36.8928,18.09234 -55.0872,24.33312 -23.814,8.16606 -48.7872,17.25948 -68.9472,32.68062 -3.906,2.98242 -9.261,6.64902 -11.6046,10.96956 2.079,1.34694 2.5326,1.13526 4.9014,1.29528 -5.4432,16.61688 -10.4706,32.6718 -13.4064,49.94136 l -33.453,-12.19554 c -2.2302,3.58848 -4.347,7.40628 -7.0182,10.67346 l -1.8648,-0.38556 c -10.3824,10.9242 -18.774,26.14626 -26.5104,39.13434 -24.2424,40.34394 -40.7988,84.83328 -48.8376,131.21136 -3.1122,17.199 -4.4478,34.69158 -8.2026,51.77214 -12.7638,-7.79688 -20.7018,-18.57366 -24.318,-33.10776 -7.4466,-29.98422 0.882,-62.6094 1.5372,-93.0069 -10.9116,33.12036 -27.3168,79.51986 -10.8108,113.2614 7.371,15.07086 20.9664,23.85936 36.54,28.77084 29.5218,9.30636 62.7732,6.98166 93.303,5.81868 -5.1786,14.58828 -12.3984,24.42258 -23.3226,35.154 l -1.3482,0.13986 c -38.6442,4.29534 -86.751,18.72234 -120.645,-8.8767 -21.08857,-17.1738 -28.63219,-48.42432 -30.75529,-74.29086 -1.93536,-23.56452 1.22976,-46.305 1.3545,-69.73344 -14.77728,37.87056 -18.94536,89.7246 -2.03868,127.67454 8.40294,18.8622 22.50607,33.33456 42.11167,40.60602 9.198,3.4083 18.8244,5.05638 28.5642,5.95476 -0.882,45.32094 -2.3058,93.80442 8.2026,138.20682 -14.2632,-10.773 -42.714,-31.752 -60.56815,-31.5378 -2.85768,1.386 -4.44024,2.1294 -5.41548,5.5188 -0.77742,2.6964 0.29988,4.2966 1.55358,6.489 10.48945,6.3126 22.16965,10.269 32.67805,16.4052 21.2562,12.4488 37.107,34.398 43.1298,58.086 8.4294,33.1128 -2.8854,66.1878 -20.1222,94.4622 -15.7878,25.8678 -35.532,48.573 -55.38829,71.3286 -8.52642,-2.4192 -21.73752,-7.4466 -30.24882,-3.024 -5.37894,2.7972 -7.68726,7.812 -9.0405,13.5198 -0.28602,1.2096 -0.35154,1.8774 -0.54684,3.1878 7.94682,-3.654 16.69374,-6.489 25.34112,-3.5028 9.92124,3.4398 15.72984,13.0662 19.77318,22.176 4.54855,10.2564 7.59775,21.0798 9.91615,32.0418 l -31.77589,-0.1512 c -11.1951,0.9828 -43.67034,3.0996 -51.73812,-3.7926 -13.13046,-11.214 -22.12938,-57.4938 -23.72076,-74.8944 8.21268,-16.8714 22.16214,-29.1564 28.89306,-47.5776 7.99722,-21.8862 8.10558,-46.242 -1.78668,-67.536 -4.30416,-9.2736 -10.94814,-22.743 -20.94498,-26.4348 -3.71322,0.6174 -3.78,0.9198 -6.37434,3.7044 -2.73924,11.0628 13.49334,27.3672 16.55262,39.0726 4.94046,18.9126 0.9765,43.4826 -9.52434,59.8374 -4.98834,7.7742 -11.68146,14.6538 -16.2477,22.617 -11.65878,20.3112 -2.95344,45.1332 2.87028,66.0114 -11.27196,0.7434 -22.56786,2.1168 -33.83478,3.0618 -3.05928,-44.2386 -2.35242,-89.4852 -1.10502,-133.7868 4.67586,-166.1058 27.64818,-354.48204 89.18532,-509.41794 23.3541,-59.14314 51.33615,-116.35092 83.69293,-171.09288 9.9288,-16.7391 20.034,-33.5916 31.2228,-49.52808 10.0296,-14.29848 21.8232,-28.4256 30.7062,-43.44228 1.6632,-2.82492 3.0744,-4.99716 2.9484,-8.38026 l -1.9278,-0.62874 c -1.9656,-3.59982 -2.6838,-8.0073 -3.6666,-11.98386 2.2806,-5.70528 4.3344,-11.01996 8.064,-15.97806 0.504,-0.77868 1.0332,-1.54602 1.575,-2.29572 14.6034,-20.14866 40.7358,-37.54548 65.3814,-41.64048 14.427,-4.20462 32.1678,-3.10716 47.1366,-3.6099 z"
     id="path7"
     style="stroke-width:1.26" />
  <path
     fill="#f3f3f2"
     d="m 952.69045,1314.9503 c 7.94682,-3.654 16.69374,-6.489 25.34112,-3.5028 9.92124,3.4398 15.72984,13.0662 19.77318,22.176 4.54855,10.2564 7.59775,21.0798 9.91615,32.0418 l -31.77589,-0.1512 c -11.38032,-1.386 -23.11596,-1.0332 -34.5744,-1.197 -0.10584,-19.0134 -0.19656,-32.9868 11.31984,-49.3668 z"
     id="path8"
     style="stroke-width:1.26" />
  <path
     fill="#f3f3f2"
     d="m 1150.7183,631.5377 c 0.7686,-1.24362 1.512,-2.49984 2.3562,-3.6855 8.9712,-12.5748 29.169,-31.13964 44.5032,-34.06032 -5.4432,16.61688 -10.4706,32.6718 -13.4064,49.94136 z"
     id="path9"
     style="stroke-width:1.26" />
  <path
     fill="url(#Gradient1)"
     d="m 1099.2095,395.3444 c 0.504,-0.77868 1.0332,-1.54602 1.575,-2.29572 14.6034,-20.14866 40.7358,-37.54548 65.3814,-41.64048 0.3654,0.48132 0.7182,0.98154 1.1088,1.44522 4.7502,5.6637 15.0444,2.78208 19.341,10.31184 -4.0698,2.7027 -18.9378,-2.95092 -25.4142,-1.72242 -4.8762,0.9261 -9.6516,3.85308 -13.923,6.31764 -10.2942,5.93964 -32.0418,24.43896 -40.1436,27.58644 -2.079,0.80892 -4.1202,1.10502 -6.3252,0.59472 -0.5544,-0.12726 -1.0584,-0.39816 -1.6002,-0.59724 z"
     id="path10"
     style="fill:url(#Gradient1);stroke-width:1.26" />
  <path
     fill="#03133f"
     d="m 1155.2291,378.14288 c 2.0664,-0.24066 4.1328,-0.44856 6.2118,-0.62244 5.4684,-0.44478 11.3904,-0.63126 15.4854,3.74094 2.2554,2.41668 2.9358,5.47218 2.7216,8.68392 -0.441,6.81408 -6.8796,14.22792 -12.033,18.13014 -10.7226,8.1018 -21.5208,7.78932 -34.083,6.03288 -4.5486,-0.8757 -9.6264,-1.54854 -12.8394,-5.12316 0.252,-3.9249 2.7468,-7.04466 5.1534,-10.01196 12.978,-16.01334 8.946,-4.30542 20.8782,-5.27184 2.5452,-1.96812 3.4146,-1.83078 4.1454,-5.09922 -2.1168,-1.27638 -4.0698,-2.5011 -5.9598,-4.09626 1.953,-3.3642 6.8922,-4.8258 10.3194,-6.363 z"
     id="path11"
     style="stroke-width:1.26" />
  <path
     fill="#03133f"
     d="m 1244.8151,345.3224 c 4.158,-0.23688 8.6058,-0.71064 12.7512,-0.31752 4.2588,0.40194 10.6596,3.843 12.8898,7.66332 1.1214,1.92276 1.4868,3.99294 1.0584,6.13242 -1.2348,5.99382 -4.9518,8.02368 -9.8028,11.02878 -3.5154,1.2033 -7.1946,2.44692 -10.9494,1.92276 -4.2462,-0.63378 -8.064,-2.96604 -10.5588,-6.46128 -2.0034,-2.70648 -2.7594,-6.14376 -2.0538,-9.43866 0.8946,-4.19958 3.1248,-8.11062 6.6654,-10.52982 z"
     id="path12"
     style="stroke-width:1.26" />
  <path
     fill="#f3f3f2"
     d="m 1219.0103,924.19664 c 27.909,-5.50998 55.2636,-10.3887 82.3914,-19.22886 12.033,28.69272 17.577,56.9331 20.9412,87.67836 -46.7712,14.92716 -95.2056,23.77236 -143.9676,29.30376 -25.2,2.8602 -50.3496,4.3974 -75.6756,5.4936 -11.6298,0.504 -24.4692,-0.2898 -35.9478,1.3482 -3.717,0.5292 -4.3596,0.693 -7.2324,3.1752 -0.9954,3.654 -1.134,3.9186 0.2016,7.434 3.2508,2.583 5.8842,3.402 9.9288,3.906 12.0204,1.4994 25.6284,-0.4158 37.7118,-1.1592 23.4486,-1.4238 46.8594,-2.898 70.2198,-5.544 49.6944,-5.6448 97.5996,-16.443 145.8828,-29.106 -0.7182,34.524 -4.7754,66.3264 -18.585,98.2926 -43.3692,30.6054 -164.0268,35.2926 -217.9296,35.6202 -7.434,-25.0362 -15.5232,-39.4632 -30.2904,-60.8958 -10.5084,-44.4024 -9.0846,-92.88588 -8.2026,-138.20682 17.7408,0.819 35.2926,0.80388 52.983,-1.17936 15.4854,-1.73754 31.0842,-5.45706 46.7082,-5.14962 l 1.7262,0.0189 c 0.3402,0.006 0.693,0.0227 1.0332,0.034 -3.7044,10.46682 -13.2048,25.88418 -8.3916,36.79326 2.0538,4.6557 6.1614,7.8687 10.8738,9.55458 10.4076,3.72078 24.192,2.17854 33.831,-3.02022 15.2712,-8.23536 25.0488,-26.39448 29.4588,-42.70392 1.1214,-4.10382 1.764,-8.24922 2.331,-12.45888 z"
     id="path13"
     style="stroke-width:1.26" />
  <path
     fill="#f3f3f2"
     d="m 1058.2847,863.94344 c 3.7548,-17.08056 5.0904,-34.57314 8.2026,-51.77214 8.0388,-46.37808 24.5952,-90.86742 48.8376,-131.21136 7.7364,-12.98808 16.128,-28.21014 26.5104,-39.13434 l 1.8648,0.38556 c 11.7558,7.73388 25.3764,12.98556 39.0348,16.254 1.008,23.5683 8.1018,42.29316 18.0936,63.53928 -18.8244,1.74006 -37.7244,2.83878 -56.637,1.93914 -14.049,-0.6678 -28.6146,-3.21804 -42.6132,-2.86902 -3.1878,0.0806 -5.8338,0.43092 -8.1018,2.84508 -0.2772,3.12354 -0.088,4.4982 2.2176,6.83676 10.5336,10.73772 64.8774,8.505 80.2746,7.42014 10.7352,-0.756 21.6342,-2.04498 32.193,-4.08114 14.6538,23.66532 28.1358,48.0123 42.588,71.79354 -50.4126,12.9276 -99.1998,22.491 -151.389,24.15924 -7.623,0.24318 -30.177,-1.52964 -34.4862,3.67794 -0.063,4.04964 -0.504,6.08832 1.449,9.70326 6.2118,2.1735 15.2082,1.20456 21.8358,1.15164 56.133,-0.44478 117.1044,-9.85068 170.6796,-26.5797 14.0616,24.18822 27.4932,48.2454 38.8836,73.82592 -25.704,6.72588 -51.3072,14.22792 -77.7924,17.10324 -7.0938,-15.71598 -15.687,-25.81866 -32.2308,-32.21946 -26.1324,-10.1115 -53.8272,-4.43898 -80.9802,-5.02614 -16.4052,-0.35532 -32.6592,-3.37554 -48.4344,-7.74144 z"
     id="path14"
     style="stroke-width:1.26" />
  <path
     fill="#5f6a6d"
     d="m 796.27405,1247.7545 c 3.14874,-0.567 5.04,-1.2474 8.01612,0.2772 4.18572,28.0476 2.44566,69.5646 2.25666,98.7966 -120.45348,0.8946 -239.35212,-9.1224 -358.85052,-23.1966 -11.01492,-2.9232 -25.72164,-2.772 -37.17126,-4.1454 35.83944,-5.796 71.68014,-15.0066 107.31042,-22.176 92.27232,-18.585 185.1192,-37.3716 278.43858,-49.5558 z"
     id="path15"
     style="stroke-width:1.26" />
  <path
     fill="#5f6a6d"
     d="m 1326.3497,1120.9103 c 6.1614,6.3126 7.5222,31.4748 7.938,40.6476 1.6254,36.9684 -9.2358,87.0786 -40.6224,110.6532 -10.6344,7.9884 -25.8804,12.9276 -34.7256,22.5792 -3.8934,12.5874 3.5406,32.4828 4.3848,45.9648 l 0.1386,2.268 c -23.7636,-0.7434 -47.1492,-0.8316 -70.6356,-5.1156 -18.207,-8.4798 0.6678,-36.729 -0.4158,-53.3862 -0.7056,-10.8864 -5.4684,-19.593 -10.4958,-28.98 66.8808,-29.2446 112.8456,-68.2416 144.4338,-134.631 z"
     id="path16"
     style="stroke-width:1.26" />
  <path
     fill="#f3f3f2"
     d="m 1288.8521,1130.3351 0.882,0.5922 c -1.4868,6.4008 -11.6676,16.4934 -16.0146,21.7224 -15.5106,18.711 -34.1586,36.7038 -54.3942,50.2614 -47.0358,31.5378 -112.2282,49.707 -168.4746,54.9108 -0.9954,-1.8396 7.2198,-14.0364 8.6562,-16.3674 17.5896,-28.6398 26.2458,-53.0838 29.106,-86.4108 68.8716,0.4032 133.6356,-6.8292 200.2392,-24.7086 z"
     id="path17"
     style="stroke-width:1.26" />
  <path
     fill="#f3f3f2"
     d="m 1078.2683,420.35288 c 1.008,-5.4495 2.0412,-10.93932 4.3974,-15.9957 12.0582,-25.7796 42.0462,-46.27854 68.0652,-55.7046 13.545,-4.90518 47.1366,-12.26358 59.913,-5.53518 2.3184,1.21842 1.953,2.30706 2.6586,4.6809 -14.9688,0.50274 -32.7096,-0.59472 -47.1366,3.6099 -24.6456,4.095 -50.778,21.49182 -65.3814,41.64048 -0.5418,0.7497 -1.071,1.51704 -1.575,2.29572 -3.7296,4.9581 -5.7834,10.27278 -8.064,15.97806 0.9828,3.97656 1.701,8.38404 3.6666,11.98386 -11.5416,16.7706 -28.4508,30.0888 -41.4414,45.87912 -20.8278,25.30332 -37.8882,52.99686 -54.75955,81.00666 -103.95126,172.49526 -140.32242,371.05866 -152.02908,569.5338 -4.3029,72.954 -6.18408,146.1852 0.84042,219.0258 l -13.50468,-0.3528 c -2.73546,-29.8872 -3.56076,-60.4674 -3.843,-90.4806 -0.57834,-61.488 3.00636,-122.1822 8.43948,-183.4056 17.2305,-194.15964 60.55434,-391.59282 170.37841,-555.87666 21.3066,-31.88178 42.399,-60.85296 69.3756,-88.28316 z"
     id="path18"
     style="stroke-width:1.26" />
  <path
     fill="#f3f3f2"
     d="m 987.55717,460.27094 c 10.47438,-1.08738 20.42833,-0.50652 30.81073,1.0143 -21.11755,30.25764 -41.45395,61.04574 -61.00537,92.33532 l -1.33434,0.22302 c -10.80072,-8.22402 -26.2521,-63.9891 -30.46554,-79.20486 20.7711,-5.25168 40.54554,-12.2472 61.99452,-14.36778 z"
     id="path19"
     style="stroke-width:1.26" />
  <path
     fill="#f3f3f2"
     d="m 883.62229,660.11702 c 7.05348,-1.30788 13.6773,2.93454 19.79082,5.94846 -12.41982,32.28876 -24.47676,64.71738 -36.16704,97.27704 l -10.33704,-17.33256 c -12.3228,-18.75006 -24.99084,-37.36152 -36.57276,-56.5803 20.85174,-10.79064 41.1264,-21.40236 63.28602,-29.31264 z"
     id="path20"
     style="stroke-width:1.26" />
  <path
     fill="#f3f3f2"
     d="m 836.97961,779.50454 c 7.88508,1.22472 15.85458,5.3046 23.13864,8.42562 l -16.50852,62.6535 c -8.49114,1.78164 -18.1377,5.50998 -26.7876,5.45328 -3.6225,-0.0239 -4.09626,-1.24866 -6.62256,-3.65904 -11.0565,-11.94732 -21.22974,-25.2756 -31.23792,-38.11878 17.63244,-14.31108 38.0268,-24.24492 58.01796,-34.75458 z"
     id="path21"
     style="stroke-width:1.26" />
  <path
     fill="#f3f3f2"
     d="m 939.27523,572.42858 c 3.16008,0.0718 3.14622,-0.59724 5.47722,1.83456 -2.3373,8.76204 -7.82586,17.72694 -11.71674,25.95222 -6.79896,14.61474 -13.51854,29.26728 -20.15748,43.95636 -6.73092,-1.6443 -14.47236,-3.36168 -21.3822,-3.61494 -3.1689,-0.11592 -1.62036,0.42462 -4.28022,-1.41372 -6.98292,-15.17418 -12.04056,-31.4118 -17.50518,-47.17818 21.06468,-10.58526 46.10466,-17.50014 69.5646,-19.5363 z"
     id="path22"
     style="stroke-width:1.26" />
  <path
     fill="#f3f3f2"
     d="m 1296.6389,1290.0905 c 7.5978,0.4536 14.805,2.7468 21.4578,6.4512 16.6572,9.2736 23.9274,25.8552 29.2194,43.1676 -8.3538,0.7056 -16.7832,1.0458 -25.1622,1.5498 l -41.6052,1.4994 c -1.5624,-14.3766 -4.2714,-27.9594 -8.2656,-41.8824 7.9002,-4.1328 16.1028,-7.4214 24.3558,-10.7856 z"
     id="path23"
     style="stroke-width:1.26" />
  <path
     fill="#f3f3f2"
     d="m 1002.6431,1306.9493 c 12.2724,-1.26 23.1084,-1.0206 34.2468,5.0148 14.9562,8.1018 26.6364,25.6158 31.4622,41.7312 1.071,3.5406 2.8728,7.0182 1.0584,10.3572 l -45.549,1.2096 c -2.4822,-22.5414 -11.2392,-36.7416 -22.1886,-55.6668 z"
     id="path25"
     style="stroke-width:1.26" />
  <path
     fill="#f3f3f2"
     d="m 1166.9723,887.24966 c 5.2542,0.70686 10.3698,1.67076 15.435,3.27096 8.1396,2.57166 15.5988,7.92918 19.3284,15.77646 4.851,10.20222 2.5326,22.81608 -1.1214,33.01956 -3.9564,11.02752 -10.4076,22.25664 -21.5964,27.14796 -8.0262,3.51414 -15.561,1.8711 -23.4234,-1.19322 1.764,-8.87166 4.8762,-17.68788 7.4718,-26.36298 7.0434,0.53172 15.2208,1.89252 22.2138,1.10124 3.717,-0.42084 5.8212,-1.68966 8.2782,-4.51458 0.8694,-3.1626 1.2978,-4.0005 0.4536,-7.1127 -10.2186,-6.03792 -29.2572,-5.51628 -40.9122,-6.60996 8.2152,-11.53782 12.8646,-20.19654 13.8726,-34.52274 z"
     id="path26"
     style="stroke-width:1.26" />
  <path
     fill="#f3f3f2"
     d="m 601.14793,1215.0575 c 17.54424,1.0206 71.80866,13.8852 84.1995,25.4646 2.06514,1.9278 2.0727,2.52 2.23524,5.166 -3.19032,2.8098 -5.79726,2.709 -9.92124,3.465 -21.0231,4.1328 -42.07266,8.1396 -63.14868,11.9952 -4.16682,-15.4476 -8.62218,-30.807 -13.36482,-46.0908 z"
     id="path27"
     style="stroke-width:1.26" />
  <path
     fill="#f3f3f2"
     d="m 820.18381,971.07242 c 1.33812,0.3717 0.4725,0.0391 2.32218,1.53594 2.95344,18.02052 -3.2382,49.69434 -6.32142,68.24154 -7.37226,-5.3676 -14.80122,-10.6596 -22.28436,-15.876 -7.2828,-4.9644 -14.32998,-10.017 -21.18312,-15.5484 14.09058,-12.93888 30.39498,-29.79768 47.46672,-38.35308 z"
     id="path29"
     style="stroke-width:1.26" />
  <path
     fill="#f3f3f2"
     d="m 433.16473,1252.7063 c 24.7716,6.426 51.02748,17.7786 73.55754,29.8746 l -13.92678,3.3264 c -18.14022,2.9106 -36.29808,7.2072 -54.2682,11.088 -2.34108,-12.4236 -8.24418,-32.3316 -5.36256,-44.289 z"
     id="path30"
     style="stroke-width:1.26" />
  <path
     fill="#f3f3f2"
     d="m 515.80309,1236.5405 c 25.55532,5.3676 52.73604,17.136 76.0977,28.728 l -15.67314,2.9358 c -18.02682,3.8052 -36.1179,7.2954 -54.26316,10.4832 -2.82366,-13.8096 -5.81112,-28.0224 -6.1614,-42.147 z"
     id="path31"
     style="stroke-width:1.26" />
  <path
     fill="#f3f3f2"
     d="m 1332.2843,1285.3025 c 19.9962,0.5796 38.871,9.324 52.2144,24.2172 5.8464,6.4134 12.4362,17.7282 12.0708,26.7498 -10.9746,0.6552 -21.861,1.4238 -32.7726,2.7594 -5.4306,-21.5586 -15.498,-38.43 -31.5126,-53.7264 z"
     id="path32"
     style="stroke-width:1.26" />
  <path
     fill="#f3f3f2"
     d="m 697.20655,1202.7977 c 10.96452,1.7262 55.5156,23.8644 67.18194,30.3912 l -0.15624,1.2348 -5.52006,1.0962 c -17.28594,2.4066 -34.51266,5.2038 -51.66756,8.4168 -4.29282,-13.4568 -7.58142,-27.2034 -9.83808,-41.139 z"
     id="path33"
     style="stroke-width:1.26" />
  <path
     fill="#f3f3f2"
     d="m 1052.0855,1302.2747 c 5.6826,1.0332 11.2266,3.024 16.5186,5.3172 23.751,10.2564 35.8344,31.2354 44.8938,54.2304 l -25.1748,0.5922 c -6.4512,-24.6582 -17.073,-43.2684 -36.2376,-60.1398 z"
     id="path34"
     style="stroke-width:1.26" />
  <path
     fill="#f3f3f2"
     d="m 835.86073,862.65194 c 1.33938,0.0542 2.4444,0.45864 3.72204,0.84042 2.62962,9.88596 -5.48604,37.07928 -7.70742,47.90898 l -21.27762,-10.05606 c -4.88124,-2.06136 -9.86202,-3.91482 -14.79744,-5.84262 11.37906,-14.44338 23.1021,-25.5528 40.06044,-32.85072 z"
     id="path35"
     style="stroke-width:1.26" />
  <path
     fill="#f3f3f2"
     d="m 807.44647,1094.5259 1.197,1.3356 c 1.58886,15.0192 -0.76482,31.941 -1.90134,47.0358 -6.1929,-3.0114 -12.50424,-5.8086 -18.7677,-8.6688 l -9.9036,-4.221 c 9.36054,-12.159 18.46026,-24.6456 29.37564,-35.4816 z"
     id="path36"
     style="stroke-width:1.26" />
  <path
     fill="#f3f3f2"
     d="m 1019.8925,373.28432 c 18.3078,2.7657 36.7038,4.58262 54.9612,7.73136 l -10.2564,16.25022 -5.859,7.94556 c -7.7868,-8.41428 -37.1322,-26.7813 -38.8458,-31.92714 z"
     id="path37"
     style="stroke-width:1.26" />
  <path
     fill="#f3f3f2"
     d="m 1312.2755,404.44286 c 0.2142,2.66238 -12.9906,17.97768 -14.9688,22.2957 -7.0686,15.37452 -7.9506,31.74696 -7.245,48.38904 0.1134,2.95218 1.3482,9.70326 0.6804,12.2031 -0.3402,1.29528 -1.3986,2.28312 -2.1042,3.42468 -6.0858,-7.32816 -5.1534,-25.54524 -4.2966,-34.79238 2.0286,-21.98448 11.2644,-37.5669 27.9342,-51.52014 z"
     id="path38"
     style="stroke-width:1.26" />
  <path
     fill="#f3f3f2"
     d="m 1024.3907,385.28708 c 5.9472,3.2319 28.8666,26.0883 30.8826,32.88348 l -1.8396,2.53512 c -2.1294,1.50696 -4.3344,2.8476 -6.5394,4.21848 -9.5886,-8.07156 -17.0226,-28.2492 -22.5036,-39.63708 z"
     id="path39"
     style="stroke-width:1.26" />
  <path
     fill="#8bbce6"
     d="m 330.31471,556.6055 c -0.38052,-20.56194 -2.6586,-79.04232 0.35154,-96.34338 0.6552,-3.76362 1.18944,-4.54986 3.74724,-7.39368 3.15126,-1.1466 4.49568,-1.38978 7.75908,-0.54558 1.7073,1.62666 3.95766,4.17564 6.09966,5.14962 7.39872,3.36798 50.90022,0.26334 62.3007,0.4347 6.76998,0.1008 17.37414,0.20538 21.86604,6.20172 8.3034,11.08548 4.04712,40.80006 3.50658,54.65628 -3.07944,4.27896 -6.57216,7.59528 -10.42272,11.15352 -26.21556,1.2789 -52.82802,0.34776 -79.08894,0.34524 l -0.29862,24.55614 c 4.53978,3.20544 9.32904,6.39072 13.25394,10.34334 21.33936,21.48678 14.8554,65.38266 15.00282,93.85866 9.61254,3.5721 18.97812,8.5239 27.58392,14.07924 43.60356,28.15218 71.13078,72.67554 79.30818,123.73704 2.32722,14.53788 0.73836,29.92374 3.75732,44.1945 2.6019,1.5939 5.55282,3.21426 7.91406,5.16222 2.6208,2.16342 3.14748,4.71366 3.52296,7.96068 1.47546,12.74364 0.24948,26.7498 0.21042,39.65724 l -0.2772,82.57662 c 6.73344,-0.21924 15.48918,-1.47042 20.6703,3.77496 2.5326,2.5641 2.75436,6.5142 3.03912,9.90864 2.11302,25.19868 0.36162,51.75948 0.37296,77.14848 l -0.17388,150.57 c -6.52806,1.0206 -10.6344,3.2886 -15.56478,7.5852 -4.51962,5.7204 -7.09632,10.5084 -5.89176,18.018 0.86562,5.3928 2.55024,10.7856 3.82662,16.0902 -17.6085,-7.0056 -35.27496,-13.86 -52.99938,-20.5632 -6.90228,-2.3184 -14.8365,-6.0102 -21.83202,-2.016 -4.96188,2.835 -8.54658,8.3664 -12.0204,12.8142 -0.4158,17.3502 3.94884,33.831 6.06312,50.9292 -12.14514,2.3184 -55.6794,9.4878 -61.90632,18.585 -1.00296,1.4616 -0.33264,2.331 0.0164,3.9186 13.39128,13.1166 95.59116,15.372 119.33838,20.9286 -2.33226,1.449 -4.2021,1.9404 -6.88968,2.1672 -13.80834,1.1592 -28.4886,-0.567 -42.38388,-0.6678 l -93.08628,0.013 -124.82064,0.013 c -23.11722,0.05 -46.66284,1.008 -69.73596,-0.1386 -4.0383,-0.189 -6.37056,-0.4032 -9.49536,-3.024 -1.24236,-15.2838 17.15238,-41.7816 20.3868,-59.8374 1.35072,-7.5474 0.29862,-15.561 0.28854,-23.2092 l 0.0239,-49.833 c 0.006,-71.6562 -1.50444,-143.4384 -0.38178,-215.07816 0.0794,-5.10426 -0.67158,-11.63358 3.6099,-15.14394 4.81068,-3.9438 11.31858,-3.0618 17.14734,-2.97486 l -0.26082,-85.2705 c -0.0428,-12.46392 -1.5813,-27.1089 0.56574,-39.26034 1.69218,-9.58356 14.41188,-7.94178 15.57864,-16.20108 1.38096,-9.76374 0.9576,-20.1285 1.5813,-29.99808 1.0836,-17.1675 6.09336,-35.00154 12.40092,-50.94432 17.01504,-43.4448 50.69232,-78.2838 93.53484,-96.7617 0.14742,-21.78792 -4.31424,-57.2922 4.2714,-76.75164 5.78214,-13.104 15.72354,-19.72152 28.62972,-24.57378 z"
     id="path40"
     style="stroke-width:1.26" />
  <path
     fill="#f3f3f2"
     d="m 168.97801,1047.8177 c 111.9699,-0.6552 223.94358,-0.756 335.91474,-0.2772 0.21546,59.2578 0.58464,118.5912 -0.13734,177.8364 -4.51962,5.7204 -7.09632,10.5084 -5.89176,18.018 0.86562,5.3928 2.55024,10.7856 3.82662,16.0902 -17.6085,-7.0056 -35.27496,-13.86 -52.99938,-20.5632 -0.8568,-55.3518 2.95848,-111.7368 -0.49392,-166.8996 -17.19648,-0.2016 -38.9466,-2.8098 -55.65168,0.9324 -2.96604,3.3012 -3.32136,8.3538 -3.70062,12.6882 -1.8396,21.0924 -0.44982,43.3314 -0.41706,64.5246 l 0.11844,125.0928 -107.45658,-0.076 0.1701,-203.2506 c -10.76292,-1.6128 -48.06396,-3.6414 -57.08682,1.2474 -5.1219,15.5106 -1.28772,172.8972 -1.69596,201.4236 -18.16542,-0.6048 -36.43794,-0.189 -54.6147,-0.1386 z"
     id="path41"
     style="stroke-width:1.26" />
  <path
     fill="#f3f3f2"
     d="m 331.11607,668.19992 c 1.17054,-0.0718 2.34234,-0.11088 3.51414,-0.11466 33.53238,-0.10332 63.189,16.64712 86.247,40.09068 36.21366,36.81972 47.0106,83.56698 46.7901,133.62426 l -123.90336,-0.30744 -136.97838,-0.029 c -0.67914,-48.2328 8.3538,-90.78804 40.57704,-128.4633 20.97648,-24.5259 51.27696,-42.3234 83.75346,-44.80056 z"
     id="path42"
     style="stroke-width:1.26" />
  <path
     fill="#f3f3f2"
     d="m 189.30559,856.78538 291.63456,0.8064 0.20286,118.95156 -291.03984,-0.53802 c -1.95048,-39.52494 -0.74718,-79.63956 -0.79758,-119.21994 z"
     id="path43"
     style="stroke-width:1.26" />
  <path
     fill="#8bbce6"
     d="m 323.87107,876.77402 c 3.8619,-0.21924 8.15976,-0.52164 11.56806,1.66572 3.94002,2.52882 5.71032,6.87456 6.95898,11.17494 2.39274,8.23158 3.81276,46.93374 0.21672,53.52606 l -4.52088,0.28098 -23.2281,0.002 c 0.10962,-17.95122 -3.07188,-39.44304 0.92862,-56.9016 1.17432,-5.12442 3.78252,-7.09254 8.0766,-9.74862 z"
     id="path44"
     style="stroke-width:1.26" />
  <path
     fill="#8bbce6"
     d="m 273.48745,875.49008 c 4.5108,0.0151 9.02916,0.189 12.411,3.57966 10.37358,10.40256 6.22944,48.45582 5.04252,62.49852 -2.54898,1.91016 -5.77332,1.30032 -8.91702,1.39986 l -18.97434,-0.0668 c 0.13482,-15.90876 -1.81314,-32.6277 0,-48.3903 1.07856,-9.38322 3.22434,-13.08888 10.43784,-19.02096 z"
     id="path45"
     style="stroke-width:1.26" />
  <path
     fill="#8bbce6"
     d="m 223.20715,875.6879 c 3.37554,0.5229 6.83424,0.91602 9.324,3.53934 9.82044,10.34586 6.42726,49.10094 5.09292,63.02268 -2.83878,1.9026 -5.78844,1.2852 -9.15012,1.3419 l -18.44766,0.0668 c 0.54054,-15.56982 -3.75102,-48.54402 3.28734,-61.41366 2.36754,-4.32936 5.47218,-5.37516 9.89352,-6.55704 z"
     id="path46"
     style="stroke-width:1.26" />
  <path
     fill="#8bbce6"
     d="m 436.16731,875.32754 c 4.55112,0.90468 9.28242,1.94796 12.56598,5.5251 5.78466,6.30126 4.05468,50.35086 2.94084,60.13476 -3.11976,1.92024 -5.38146,1.53342 -9.00018,1.66068 l -18.53334,-0.0869 c -0.31878,-17.06418 -3.08574,-38.09988 1.20708,-54.51768 1.76526,-6.7536 4.98834,-9.25848 10.81962,-12.71592 z"
     id="path47"
     style="stroke-width:1.26" />
  <path
     fill="#8bbce6"
     d="m 378.78565,875.45354 c 4.1895,0.43218 7.812,1.33308 10.6785,4.67334 7.9128,9.21312 5.89806,48.82626 4.27644,61.32168 -2.97612,2.32596 -7.6734,1.57374 -11.29338,1.58004 l -15.75252,-0.12096 c 0.24822,-16.26912 -4.02444,-44.70732 1.79928,-59.1192 2.0034,-4.95936 5.7519,-6.30252 10.29168,-8.3349 z"
     id="path48"
     style="stroke-width:1.26" />
  <path
     fill="#f3f3f2"
     d="m 300.79669,990.84182 c 67.81824,-0.378 135.63774,-0.19656 203.4522,0.54558 l -0.13734,40.5669 -127.78164,-0.126 -207.30402,-0.5166 -0.001,-39.94824 z"
     id="path49"
     style="stroke-width:1.26" />
  <path
     fill="#f3f3f2"
     d="m 346.53595,473.41274 74.09556,0.10458 c 0.21546,13.58658 0.18018,27.17568 -0.10584,40.75974 -24.67206,0.13482 -49.34538,0.0529 -74.01744,-0.24822 z"
     id="path50"
     style="stroke-width:1.26" />
  <path
     fill="#b8cfdf"
     d="m 338.15695,653.30168 c -2.77452,-0.0882 -5.22648,-0.36792 -7.93926,-0.95634 -0.25074,-0.53046 -0.61866,-1.01934 -0.75222,-1.59138 -1.29024,-5.5125 -1.10628,-48.62844 0.59598,-53.1468 l 7.75152,-1.7955 c 1.81314,0.60984 4.17438,0.69678 5.00598,2.57166 3.11724,7.01568 3.23064,47.03076 0.068,53.99352 -1.827,0.6426 -2.73924,0.87444 -4.73004,0.92484 z"
     id="path51"
     style="stroke-width:1.26" />
  <path
     fill="#f3f3f2"
     d="m 337.81297,595.81166 c 1.81314,0.60984 4.17438,0.69678 5.00598,2.57166 3.11724,7.01568 3.23064,47.03076 0.068,53.99352 -1.827,0.6426 -2.73924,0.87444 -4.73004,0.92484 -2.93832,-15.67818 -3.9249,-41.9706 -0.34398,-57.49002 z"
     id="path52"
     style="stroke-width:1.26" />
  <path
     fill="#b8cfdf"
     d="m 314.28877,596.3144 c 2.8917,0.38304 4.80186,0.57204 7.22106,2.2743 3.03912,14.95368 0.0995,40.71816 -0.2709,56.48328 -1.71234,-0.23184 -3.1941,-0.65772 -4.84596,-1.14534 -5.1912,-12.09726 -2.1924,-43.18398 -2.1042,-57.61224 z"
     id="path53"
     style="stroke-width:1.26" />
  <path
     fill="#f3f3f2"
     d="m 352.94053,596.15312 2.74428,1.3104 c 4.46922,8.29836 1.61532,44.8497 1.4049,56.13804 -1.55232,1.10754 -0.59346,0.74592 -3.02274,0.56196 -4.18824,-8.38782 -1.5435,-46.71828 -1.12644,-58.0104 z"
     id="path54"
     style="stroke-width:1.26" />
  <path
     fill="#f3f3f2"
     d="m 331.46383,573.2501 c 2.15082,-0.18522 4.3029,-0.36666 6.46506,-0.29988 5.35248,0.16506 9.4122,2.457 13.01076,6.34536 l -0.2016,2.37888 c -3.58596,2.00214 -6.3252,1.34946 -10.3824,1.26378 l -21.09366,-1.18062 c 3.79512,-3.3453 7.9128,-5.86026 12.20184,-8.50752 z"
     id="path55"
     style="stroke-width:1.26" />
  <path
     fill="#8bbce6"
     d="m 1595.5235,891.63698 c 66.5406,30.89394 133.497,60.9273 200.8188,90.09126 l 64.2222,27.86106 c 10.9746,4.7502 22.7304,9.009 33.3018,14.5278 4.2966,2.2554 7.182,4.4226 10.0422,8.3286 0.3024,2.0286 0.9954,3.0114 -0.2646,4.8132 -1.9782,2.835 -5.0778,4.095 -8.4042,4.5234 -3.9942,0.504 -8.2278,0.063 -12.2472,-0.1638 l -9.2862,0.3528 c -0.2394,18.5724 -6.7788,33.831 -7.4088,52.0632 -2.1168,60.8454 0.038,122.5224 0.2016,183.456 8.0514,-0.4158 21.6594,-2.9862 28.0602,3.1122 6.2118,5.922 4.0698,24.0408 4.0068,32.382 6.4008,4.1454 9.0594,7.5096 10.647,15.057 1.6758,7.9758 4.2714,24.822 -0.5166,31.7394 -1.1214,1.6254 -1.9278,2.331 -3.9312,2.7468 -10.2186,2.1168 -23.5116,0.8064 -34.02,0.8316 l -73.9872,0.126 -280.9296,0.025 c -13.5954,-0.025 -105.5124,1.8018 -111.825,-2.3814 -1.9908,-4.3596 -1.6884,-5.5314 -6.3,-7.3332 6.9048,-0.6426 10.584,-1.1214 15.9894,-5.7834 0.6048,-8.1522 -0.7938,-14.7546 -3.0744,-22.4658 -1.9908,-5.2794 -4.4478,-10.3446 -6.8292,-15.4602 -3.3264,-5.8338 -7.182,-10.7856 -11.4156,-15.9768 -4.0446,-3.4146 -7.9128,-7.0686 -11.8188,-10.647 0.9576,-26.8254 0.3276,-53.8902 0.378,-80.7408 0.3654,-39.9546 0.076,-79.9092 -0.8946,-119.8512 l -6.3,-8.5554 -0.5796,-18.2322 c -9.891,-0.4536 -19.7946,-0.5418 -29.6982,-0.2772 0.2646,-19.3914 2.7468,-38.2662 2.2806,-57.84528 0.8946,3.26968 0.756,5.34108 3.5658,7.43268 12.0078,-1.173 222.6546,-100.92216 246.2166,-113.75652 z"
     id="path56"
     style="stroke-width:1.26" />
  <path
     fill="#f3f3f2"
     d="m 1410.6185,1325.5469 325.332,0.3276 101.7954,-0.076 c 13.0536,-0.025 27.1908,-1.5876 40.0554,-0.567 5.8716,0.4662 12.3102,2.835 16.3548,7.2576 2.4066,2.6208 4.284,6.1488 3.8052,9.7902 -0.2142,1.6884 -1.4994,2.6712 -2.5578,3.9438 -4.4478,1.6128 -8.9082,2.0412 -13.608,2.205 -28.854,1.071 -58.0986,0.1134 -86.9778,0.076 l -163.3716,-0.1512 -145.4796,-0.1638 c -23.9526,-0.038 -48.384,0.9828 -72.2736,-0.1764 0.6048,-8.1522 -0.7938,-14.7546 -3.0744,-22.4658 z"
     id="path57"
     style="stroke-width:1.26" />
  <path
     fill="#f3f3f2"
     d="m 1392.3737,1294.1099 c 10.08,-4.8132 452.1762,-1.7262 491.1606,-1.575 l -0.7308,17.8416 -479.0142,-0.2898 c -3.3264,-5.8338 -7.182,-10.7856 -11.4156,-15.9768 z"
     id="path58"
     style="stroke-width:1.26" />
  <path
     fill="#b8cfdf"
     d="m 1873.7063,1041.9713 c -44.3394,3.276 -89.7624,1.197 -134.2404,1.1214 l -226.8756,-0.076 -115.3152,-0.1386 c -16.0524,-0.013 -34.8768,2.1168 -50.5638,-0.4788 l -1.3482,-1.7136 c 1.6002,-2.3814 2.2176,-3.4398 5.3298,-4.0068 10.1304,-1.8774 26.46,0.2898 37.2078,0.2142 46.557,-0.2394 93.114,-0.1512 139.6836,0.2898 l 231.651,-0.2772 c 35.4942,0.1386 90.1152,-1.9908 123.7572,4.7124 z"
     id="path59"
     style="stroke-width:1.26" />
  <path
     fill="#f3f3f2"
     d="m 1595.7125,910.57604 c 17.5266,2.82492 54.0918,24.12774 72.8784,32.44626 l 124.3872,55.0746 c 18.144,7.9896 40.9374,15.4614 57.708,25.5288 -28.602,-1.5498 -57.6198,-0.6552 -86.2596,-0.6552 l -150.5574,-0.1386 c -87.255,-1.2726 -174.7368,-0.088 -262.017,0.252 41.1138,-16.7202 80.7912,-36.73146 120.9726,-55.48278 40.9374,-19.10286 82.2654,-37.22922 122.8878,-57.02508 z"
     id="path60"
     style="stroke-width:1.26" />
  <path
     fill="#8bbce6"
     d="m 1592.7893,934.20734 c 15.7374,-1.68966 29.925,9.59868 31.8024,25.32474 1.89,15.72606 -9.2232,30.04218 -24.9354,32.1174 -13.9482,1.84464 -27.2034,-6.61878 -31.3992,-20.05164 -2.583,-8.2656 -1.323,-17.25318 3.4272,-24.49314 4.7502,-7.24122 12.4866,-11.97378 21.105,-12.89736 z"
     id="path61"
     style="stroke-width:1.26" />
  <path
     fill="#b8cfdf"
     d="m 1591.9325,949.55162 c 7.1442,-2.14326 14.7042,1.7514 17.0982,8.81244 2.394,7.05978 -1.2348,14.7483 -8.2026,17.3943 -4.7376,1.7955 -10.0674,0.86436 -13.923,-2.42928 -3.843,-3.29364 -5.5818,-8.42562 -4.536,-13.37994 1.0458,-4.95432 4.7124,-8.94096 9.5634,-10.39752 z"
     id="path62"
     style="stroke-width:1.26" />
  <path
     fill="#f3f3f2"
     d="m 1507.7645,1055.9447 40.6728,0.1386 c -0.1512,5.9724 0.1008,11.9826 0.2142,17.9676 l 7.2324,6.867 c 0.1134,22.2516 2.6712,188.685 -0.4914,196.1442 l -3.9186,0.5544 -50.8284,-0.038 c -0.013,-27.8586 -3.2886,-186.6312 3.1878,-200.403 3.528,-7.497 3.8052,-13.0914 3.9312,-21.231 z"
     id="path63"
     style="stroke-width:1.26" />
  <path
     fill="#f3f3f2"
     d="m 1612.7729,1055.6927 40.7484,-0.025 c -0.2016,10.1808 -0.8694,16.4304 6.0732,24.4944 0.3528,21.7476 3.1878,191.0286 -0.2646,196.812 l -3.276,0.4788 -50.7402,-0.063 0.1512,-118.0116 c 0.076,-22.7556 -0.6048,-45.8262 0.693,-68.5188 0.6678,-11.6802 5.9094,-21.3318 6.5142,-32.9994 z"
     id="path64"
     style="stroke-width:1.26" />
  <path
     fill="#f3f3f2"
     d="m 1716.5087,1055.7809 40.7484,-0.013 c 0.126,10.7856 -0.5166,16.6194 6.5394,25.5024 l 0.2772,132.8166 c 0,19.2024 1.323,39.249 0.2772,58.338 -0.1008,1.8522 -0.5922,3.0366 -1.575,4.5738 l -3.402,0.4032 -49.6188,0.025 c -0.2394,-59.8878 -1.4616,-120.1536 0.3024,-180.0162 0.441,-14.8302 6.3252,-26.9766 6.4512,-41.6304 z"
     id="path65"
     style="stroke-width:1.26" />
  <path
     fill="#f3f3f2"
     d="m 1402.7687,1055.7305 39.0474,0.025 c -0.1512,6.0228 0.063,12.0708 0.1386,18.081 2.1672,2.6964 4.6116,5.04 7.056,7.4718 0.025,23.0328 2.2176,188.7984 -1.1592,195.9552 l -3.4776,0.2394 -46.935,-0.076 c -2.7216,-64.5498 -1.3986,-131.8086 -0.567,-196.5222 6.363,-8.883 5.9346,-14.6538 5.8968,-25.1748 z"
     id="path66"
     style="stroke-width:1.26" />
  <path
     fill="#f3f3f2"
     d="m 1820.6225,1056.2849 c 8.127,-0.1008 16.2666,0.2268 24.381,0.441 0.2142,4.536 0.3276,8.9712 2.0034,13.2552 1.0584,2.709 2.3184,5.292 2.961,8.1648 1.9908,8.9586 3.4524,191.52 1.4238,197.0388 -0.3024,0.8316 -1.0332,1.4364 -1.5498,2.1672 l -4.788,0.3024 -33.1128,-0.1008 c -0.2268,-65.0916 0.063,-130.1832 0.8694,-195.2748 6.3378,-8.4294 6.7284,-15.8382 7.812,-25.9938 z"
     id="path67"
     style="stroke-width:1.26" />
  <path
     fill="#b8cfdf"
     d="m 1570.0589,1080.9179 21.1176,0.025 c -0.9576,65.52 0.1638,131.1912 0.252,196.7238 l -20.3994,-0.126 c -0.7308,-65.5452 -1.0584,-131.0778 -0.9702,-196.623 z"
     id="path68"
     style="stroke-width:1.26" />
  <path
     fill="#b8cfdf"
     d="m 1463.7401,1080.5777 20.5506,0.3906 0.3654,196.5852 -20.223,0.063 c -0.9198,-65.646 -0.4032,-131.3802 -0.693,-197.0388 z"
     id="path69"
     style="stroke-width:1.26" />
  <path
     fill="#b8cfdf"
     d="m 1674.6641,1081.2581 20.1474,-0.126 c 0.5292,65.4696 0.567,130.9518 0.1386,196.4214 l -20.2356,-0.013 z"
     id="path70"
     style="stroke-width:1.26" />
  <path
     fill="#b8cfdf"
     d="m 1779.3071,1080.9431 19.2276,0.013 -0.4662,196.8498 -19.026,-0.05 z"
     id="path71"
     style="stroke-width:1.26" />
  <path
     fill="#b8cfdf"
     d="m 1563.2297,1055.8565 c 11.7054,0.3024 24.6582,-2.2302 35.8344,1.0584 3.2256,3.4398 2.3184,5.67 2.394,10.2816 -11.4912,0.1764 -24.759,3.4524 -35.658,-0.315 -3.0996,-3.7548 -2.3814,-6.2496 -2.5704,-11.025 z"
     id="path72"
     style="stroke-width:1.26" />
  <path
     fill="#b8cfdf"
     d="m 1666.6127,1055.7053 c 11.0628,0.1638 23.2596,-2.4696 33.7554,1.1844 2.9862,3.5406 2.0916,5.9346 2.079,10.4706 -11.1006,-0.013 -24.0282,3.9564 -34.2216,-1.0836 -2.142,-3.6792 -1.5876,-6.363 -1.6128,-10.5714 z"
     id="path73"
     style="stroke-width:1.26" />
  <path
     fill="#b8cfdf"
     d="m 1770.4367,1055.9321 c 11.529,0.315 24.9102,-2.3688 35.784,1.1214 2.8728,3.3138 2.0286,5.6952 2.0664,9.9792 -11.592,-0.1134 -24.8976,2.6082 -35.91,-1.1466 -2.8224,-3.4146 -1.9656,-5.607 -1.9404,-9.954 z"
     id="path74"
     style="stroke-width:1.26" />
  <path
     fill="#b8cfdf"
     d="m 1456.2557,1055.9321 c 11.5794,0.2646 24.6708,-2.331 35.6706,1.008 2.961,3.402 1.8648,5.418 1.5876,9.8154 -11.3274,0.882 -24.2424,1.0206 -35.5194,-0.252 -1.953,-3.0744 -1.4994,-6.9678 -1.7388,-10.5714 z"
     id="path75"
     style="stroke-width:1.26" />
  <path
     fill="#03133f"
     d="m 443.36569,1453.1849 c 21.65814,-0.8694 44.14284,-1.323 65.79342,-0.3654 16.24518,0.7308 34.91208,3.8178 46.11978,16.7706 7.0875,8.19 9.47646,19.2654 8.48736,29.8872 -1.20456,12.9402 -9.03672,20.4372 -18.29772,28.4004 10.51722,4.9392 18.70974,10.2312 22.89294,21.6594 4.2462,11.592 1.87992,23.0832 -3.44484,33.8058 -1.38222,1.7514 -2.79972,3.5154 -4.40874,5.0778 -21.9996,21.2814 -87.53094,15.246 -117.999,15.2334 -0.126,-19.2528 -3.04416,-142.6446 0.8568,-150.4692 z"
     id="path76"
     style="stroke-width:1.26" />
  <path
     fill="#f3f3f2"
     d="m 473.34235,1538.9153 c 16.49466,-0.2016 46.91358,-4.0194 60.25446,6.93 4.33692,3.5532 6.4197,8.6184 6.66666,14.1498 0.27972,6.237 -2.4885,10.0548 -6.6402,14.3514 -17.18766,8.2278 -42.81732,4.6746 -61.42374,4.3092 -0.21546,-8.2908 -3.22812,-33.831 1.14282,-39.7404 z"
     id="path77"
     style="stroke-width:1.26" />
  <path
     fill="#f3f3f2"
     d="m 470.46325,1477.9313 c 16.91046,0.05 43.20162,-3.276 58.15026,5.6952 3.29994,1.9782 6.1362,4.8258 6.75864,8.7948 1.04454,6.6528 -3.1311,13.4064 -7.29666,18.1566 -15.82812,9.261 -39.70386,5.67 -57.42954,5.3802 -0.45864,-12.6504 -0.18648,-25.3764 -0.1827,-38.0268 z"
     id="path78"
     style="stroke-width:1.26" />
  <path
     fill="#03133f"
     d="m 906.42451,1489.4351 c 16.75674,-0.5922 29.6604,3.5028 42.72534,13.9482 l 1.2348,1.008 c 1.9404,-3.528 1.0521,-9.765 1.05588,-13.8474 l 27.7011,0.076 c -0.21042,29.925 5.41674,104.4162 -8.22276,127.4364 -7.07994,11.9448 -18.5094,18.9 -31.8024,22.1004 -26.04672,6.2874 -53.06742,1.1844 -75.49668,-12.9402 l 7.14924,-15.2082 2.25666,-4.536 c 0.69048,-0.2772 1.3293,-0.8946 2.07018,-0.8316 5.01228,0.4284 21.31542,13.671 42.52248,14.112 8.9523,0.189 17.6211,-1.4868 24.12144,-8.0514 10.64322,-10.7604 10.69614,-26.3592 10.8108,-40.4334 -6.64524,9.2862 -13.9797,15.561 -25.21008,18.6984 -13.8348,3.8682 -29.54574,1.1592 -41.88366,-5.9724 -12.24468,-7.056 -21.07476,-18.4212 -24.28524,-32.2434 -3.20166,-13.7844 -0.88956,-28.6146 7.06104,-40.4082 9.0972,-13.4946 22.69764,-19.9206 38.19186,-22.9068 z"
     id="path79"
     style="stroke-width:1.26" />
  <path
     fill="#f3f3f2"
     d="m 913.06219,1513.1987 c 5.66244,-0.378 11.36646,-0.4536 16.7958,1.3986 8.06274,2.772 15.30396,8.379 18.7551,16.317 2.74806,6.2622 2.8287,13.3812 0.22428,19.7064 -4.08366,10.017 -11.8062,14.6034 -21.30912,18.6228 -7.15302,0.7812 -14.38668,0.8442 -21.20328,-1.8144 -7.08246,-2.7594 -12.9213,-8.0766 -15.78654,-15.1704 -2.89296,-7.2702 -2.6208,-15.4098 0.7497,-22.4532 4.54482,-9.45 12.29382,-13.3686 21.77406,-16.6068 z"
     id="path80"
     style="stroke-width:1.26" />
  <path
     fill="#03133f"
     d="m 811.30585,1446.3179 h 28.06398 l -0.063,157.4874 -27.62298,0.063 -0.42336,-17.6022 c -5.20254,5.7582 -10.30554,11.0376 -17.39556,14.5152 -12.6945,6.237 -25.46208,4.5108 -38.41236,0.2268 -4.5045,-2.205 -8.8641,-4.41 -12.87216,-7.4592 -12.23334,-9.3114 -19.74798,-22.3524 -21.68586,-37.5984 -2.16594,-17.0352 2.00844,-34.902 13.16196,-48.195 9.36306,-11.1636 22.87908,-18.0306 37.422,-19.0134 15.7689,-0.9702 28.56168,5.481 40.07808,15.6114 -0.22932,-19.341 -0.31374,-38.682 -0.25074,-58.0356 z"
     id="path81"
     style="stroke-width:1.26" />
  <path
     fill="#f3f3f2"
     d="m 770.78929,1515.9455 c 17.28594,-5.1534 35.46774,4.725 40.57074,22.0248 5.103,17.2998 -4.8132,35.4438 -22.1256,40.509 -17.2494,5.04 -35.32032,-4.8384 -40.40442,-22.0752 -5.0841,-17.2242 4.73886,-35.3304 21.95928,-40.4586 z"
     id="path82"
     style="stroke-width:1.26" />
  <path
     fill="#03133f"
     d="m 1046.7935,1489.4981 c 13.7592,-1.0962 26.2836,-0.5166 38.7954,6.1992 14.3766,7.7238 23.4864,21.7098 27.5688,37.2204 1.6632,6.3126 2.7594,12.6756 -0.7308,18.522 -8.7066,6.3504 -69.8796,1.89 -84.9114,2.016 1.8144,5.0904 3.6918,10.3824 6.9804,14.7294 5.9472,7.8876 14.6286,12.8772 24.4692,13.8348 12.5748,1.2222 21.609,-3.7926 31.0464,-11.214 5.8212,1.6632 12.9528,10.8234 17.1108,15.309 -7.0686,7.2072 -15.7626,12.6126 -25.3638,15.7374 -16.1784,5.4054 -35.2044,4.5234 -50.4126,-3.339 -14.2506,-7.2576 -24.7968,-20.1852 -29.043,-35.6076 -4.20835,-15.0444 -2.88538,-32.9994 5.0652,-46.6326 8.8956,-15.2586 23.1462,-22.113 39.4254,-26.775 z"
     id="path83"
     style="stroke-width:1.26" />
  <path
     fill="#f3f3f2"
     d="m 1050.9263,1512.2159 c 7.2702,-0.315 14.5026,-0.3528 21.0924,3.2004 8.7066,4.6998 11.7936,12.915 14.3892,21.8736 l -21.9996,-0.9198 -35.2044,0.013 c 0.8694,-3.339 1.827,-6.6402 3.3264,-9.7776 3.8808,-8.1018 10.3446,-11.3778 18.396,-14.3892 z"
     id="path84"
     style="stroke-width:1.26" />
  <path
     fill="#03133f"
     d="m 1526.5889,1490.7203 c 3.7926,-0.252 7.5726,-0.4158 11.3652,-0.5166 14.6664,-0.2772 29.8116,2.0286 40.5216,13.0158 5.4054,5.544 8.883,12.6 10.6344,20.097 4.6368,19.8324 1.4112,58.3506 1.1844,80.4132 l -26.8758,0.2394 0.189,-15.7878 c -6.3378,7.1442 -12.1968,12.6882 -21.5334,15.6366 -13.4064,4.2336 -26.082,0.4662 -38.0646,-5.7834 -6.7662,-4.7124 -12.7134,-11.1384 -14.7798,-19.3032 -2.016,-7.938 -1.0206,-17.8794 3.3516,-24.8976 13.4946,-21.6846 44.3646,-9.7776 63.882,-15.5106 3.2004,-0.9324 3.9186,-1.9404 5.355,-4.8258 -0.1134,-1.9782 -0.2772,-3.7674 -1.0584,-5.6196 -2.331,-5.5818 -6.4638,-10.1052 -12.1212,-12.3354 -14.175,-5.5818 -30.5928,-1.4994 -44.1126,4.1706 -3.9564,-5.607 -7.0938,-11.1384 -10.1304,-17.2746 10.6344,-5.7708 20.3364,-9.324 32.193,-11.718 z"
     id="path85"
     style="stroke-width:1.26" />
  <path
     fill="#f3f3f2"
     d="m 1536.8579,1555.1819 c 6.804,-0.252 15.2964,-1.3356 21.9492,-0.2394 3.024,0.504 3.528,2.016 5.103,4.347 0.189,2.331 0.076,3.6666 -0.8694,5.8716 -3.6162,8.5428 -12.5244,14.2758 -20.7396,17.5014 -5.733,1.0836 -11.3274,1.4616 -16.7328,-1.1466 -4.032,-1.953 -7.4088,-5.5944 -8.316,-10.08 -0.6174,-3.0996 0.189,-6.4134 1.9656,-9.0216 4.1076,-6.0354 11.0376,-6.4638 17.64,-7.2324 z"
     id="path86"
     style="stroke-width:1.26" />
  <path
     fill="#03133f"
     d="m 591.58705,1491.4511 29.7612,-0.3402 c -0.1071,19.2906 -4.98078,70.623 8.31852,84.0168 4.221,4.2462 9.8532,6.0606 15.77142,6.0606 6.68682,0.013 13.18464,-2.1294 17.83908,-7.0686 13.59288,-14.4144 8.51508,-63.1512 8.3538,-82.53 l 28.65744,-0.013 c -0.0605,12.6126 0.16758,25.2378 0.26712,37.8378 l 0.0857,74.466 -28.32354,0.063 -0.51534,-14.8806 c -9.80028,9.3996 -21.45276,16.002 -35.32536,16.2414 -11.38662,0.2016 -22.06638,-2.6712 -30.29544,-10.8864 -20.66274,-20.6514 -14.65884,-75.1842 -14.59458,-102.9672 z"
     id="path87"
     style="stroke-width:1.26" />
  <path
     fill="#03133f"
     d="m 1213.3655,1491.8669 88.1748,-0.4536 1.3482,20.9538 c -20.0592,22.2012 -37.1196,46.872 -57.3426,68.922 19.2024,-0.2646 38.3922,-0.6552 57.5946,-1.1718 l -0.038,21.2562 -0.5544,1.3104 c -8.0514,3.339 -75.537,1.764 -89.3592,1.9152 -0.1386,-7.1946 0.013,-14.4018 0.038,-21.5964 16.5312,-23.3352 36.1242,-45.3726 54.2178,-67.5738 l -53.298,-0.9324 z"
     id="path88"
     style="stroke-width:1.26" />
  <path
     fill="#03133f"
     d="m 1140.4241,1469.1491 28.6272,-0.1512 -0.076,23.4738 30.7314,0.025 -0.063,21.861 -31.3488,0.076 c -0.2016,18.0054 -2.7468,39.5892 0.3024,57.1284 2.9358,16.8462 22.5288,5.1156 31.563,11.4534 l 0.2898,5.3928 0.3906,16.5564 c -6.363,0.252 -12.7386,0.4536 -19.1016,0.6048 -11.5416,0.252 -25.137,-0.4914 -33.6924,-9.2862 -12.663,-13.0032 -7.7112,-63.6426 -7.6356,-81.8496 l -18.0432,0.5544 v -21.9114 l 18.0936,-0.4032 z"
     id="path89"
     style="stroke-width:1.26" />
  <path
     fill="#03133f"
     d="m 1438.4519,1446.1541 28.35,-0.1008 0.1134,158.067 -27.9594,-0.2646 c -0.7056,-52.542 -0.7056,-105.1596 -0.504,-157.7016 z"
     id="path90"
     style="stroke-width:1.26" />
  <path
     fill="#03133f"
     d="m 1380.6053,1446.1289 28.476,-0.2268 -0.025,157.9032 -27.9342,0.2394 z"
     id="path91"
     style="stroke-width:1.26" />
  <path
     fill="#03133f"
     d="m 1324.1447,1490.4557 28.791,0.025 -0.4284,113.1984 c -9.45,0.5796 -19.1772,0.1512 -28.6524,0.2016 z"
     id="path92"
     style="stroke-width:1.26" />
  <path
     fill="#03133f"
     d="m 1333.1159,1440.0305 c 1.7136,-0.05 3.4146,-0.126 5.1156,0.013 5.2542,0.4536 10.7856,2.9232 14.0994,7.119 2.6208,3.339 3.3642,7.434 2.6334,11.5542 -1.2978,7.3332 -7.0434,10.9872 -12.8772,14.7294 -2.3436,0.3276 -4.7628,0.7938 -7.1316,0.315 -4.4856,-0.8946 -9.3996,-3.8556 -11.8818,-7.7364 -2.5452,-4.0068 -3.0618,-9.4248 -1.6884,-13.9356 1.8648,-6.1362 6.4386,-9.0468 11.7306,-12.0582 z"
     id="path93"
     style="stroke-width:1.26" />
</svg>
